<svg width="31" height="29" viewBox="0 0 31 29" fill="none" xmlns="http://www.w3.org/2000/svg">
<path fill-rule="evenodd" clip-rule="evenodd" d="M0.356934 29H8.35693V10H0.356934V29Z" fill="#FF0000"/>
<path fill-rule="evenodd" clip-rule="evenodd" d="M11.2363 9.61377H16.7747V12.3064C16.7747 12.3064 17.6263 9.59021 22.7466 9.59021C26.974 9.59021 29.9965 11.1819 29.9965 15.553V28.9999H24.082C24.082 28.9999 24.1146 17.6914 24.1476 17.343C24.1802 16.9943 23.8198 14.1436 20.8052 14.1436C17.7906 14.1436 16.84 16.2341 16.84 17.8179V28.9999H11.2363V9.61377Z" fill="#FF0000"/>
<mask id="mask0" mask-type="alpha" maskUnits="userSpaceOnUse" x="0" y="0" width="8" height="7">
<path fill-rule="evenodd" clip-rule="evenodd" d="M0.356934 0.0134277H7.53338V6.95055H0.356934V0.0134277Z" fill="white"/>
</mask>
<g mask="url(#mask0)">
<path fill-rule="evenodd" clip-rule="evenodd" d="M7.5332 3.48219C7.5332 5.39764 5.9267 6.95059 3.9452 6.95059C1.96295 6.95059 0.356445 5.39764 0.356445 3.48219C0.356445 1.56638 1.96295 0.0134277 3.9452 0.0134277C5.9267 0.0134277 7.5332 1.56638 7.5332 3.48219Z" fill="#FF0000"/>
</g>
</svg>
