<svg width="512" height="512" viewBox="0 0 512 512" fill="none" xmlns="http://www.w3.org/2000/svg">
<path d="M114.496 160H0V512H114.496V160Z" fill="white"/>
<path d="M426.368 164.128C425.152 163.744 424 163.328 422.72 162.976C421.184 162.624 419.648 162.336 418.08 162.08C412 160.864 405.344 160 397.536 160C330.784 160 288.448 208.544 274.496 227.296V160H160V512H274.496V320C274.496 320 361.024 199.488 397.536 288C397.536 367.008 397.536 512 397.536 512H512V274.464C512 221.28 475.552 176.96 426.368 164.128Z" fill="white"/>
<path d="M56 112C86.9279 112 112 86.9279 112 56C112 25.0721 86.9279 0 56 0C25.0721 0 0 25.0721 0 56C0 86.9279 25.0721 112 56 112Z" fill="white"/>
</svg>
