<svg width="112" height="62" viewBox="0 0 112 62" fill="none" xmlns="http://www.w3.org/2000/svg">
<path fill-rule="evenodd" clip-rule="evenodd" d="M9.89724 12.212H6.25893V17.06H9.97628C11.7692 17.06 12.8239 16.2091 12.8239 14.6877C12.8239 13.1404 11.6902 12.212 9.89724 12.212M9.63367 4.91395H6.25893V9.42698H9.63367C11.3737 9.42698 12.3758 8.65324 12.3758 7.18341C12.3758 5.73929 11.3737 4.91395 9.63367 4.91395M10.5038 20H2.56787V2H10.161C14.0103 2 16.1459 3.95989 16.1459 6.64175C16.1459 8.83373 14.8012 10.2005 13.0084 10.7679C15.0914 11.1289 16.5679 13.0115 16.5679 15.126C16.5679 17.9885 14.3268 20 10.5038 20" fill="#FEFEFE"/>
<path fill-rule="evenodd" clip-rule="evenodd" d="M31.5679 19.8253H28.0964V18.0785C27.2346 19.2514 25.7327 20 24.0336 20C20.8576 20 18.5679 17.9038 18.5679 14.1104V6H22.015V13.6114C22.015 15.8325 23.2211 17.0303 25.0431 17.0303C26.9145 17.0303 28.0964 15.8325 28.0964 13.6114V6H31.5679V19.8253Z" fill="#FEFEFE"/>
<path fill-rule="evenodd" clip-rule="evenodd" d="M41.8808 20C38.2547 20 35.7241 17.8759 35.5679 15.1747H39.246C39.3764 16.2761 40.3937 17.1152 41.8548 17.1152C43.2894 17.1152 44.0722 16.4599 44.0722 15.6206C44.0722 13.0245 35.9069 14.6765 35.9069 9.35309C35.9069 6.94054 38.0461 5 41.62 5C45.1157 5 47.2285 6.91439 47.4373 9.79897H43.9418C43.8372 8.67139 42.9505 7.9109 41.5154 7.9109C40.1591 7.9109 39.4548 8.46152 39.4548 9.30081C39.4548 11.9494 47.4635 10.2971 47.5679 15.6206C47.5679 18.1119 45.4027 20 41.8808 20" fill="#FEFEFE"/>
<mask id="mask0" mask-type="alpha" maskUnits="userSpaceOnUse" x="0" y="0" width="112" height="62">
<path fill-rule="evenodd" clip-rule="evenodd" d="M0.567871 62H111.568V0H0.567871V62Z" fill="white"/>
</mask>
<g mask="url(#mask0)">
<path fill-rule="evenodd" clip-rule="evenodd" d="M48.9168 20H52.1726V5.8674H48.9168V20ZM48.5679 2.09173C48.5679 0.918355 49.4049 0 50.568 0C51.7075 0 52.5679 0.918355 52.5679 2.09173C52.5679 3.26528 51.7075 4.18364 50.568 4.18364C49.4049 4.18364 48.5679 3.26528 48.5679 2.09173V2.09173Z" fill="#FEFEFE"/>
<path fill-rule="evenodd" clip-rule="evenodd" d="M65.1208 11.8327C65.1208 9.45737 63.9143 8.17631 62.0923 8.17631C60.2211 8.17631 59.0146 9.45737 59.0146 11.8327V20H55.5679V5.2136H59.0146V7.05509C59.9011 5.80082 61.3783 5 63.1265 5C66.3025 5 68.5679 7.24208 68.5679 11.3257V20H65.1208V11.8327Z" fill="#FEFEFE"/>
<path fill-rule="evenodd" clip-rule="evenodd" d="M74.2013 11.1363H80.8836C80.833 9.22207 79.3593 8.01569 77.5299 8.01569C75.8273 8.01569 74.4806 9.14328 74.2013 11.1363M77.6314 20C73.5406 20 70.5679 17.0629 70.5679 12.4999C70.5679 7.91093 73.4644 5 77.6314 5C81.6966 5 84.5679 7.85829 84.5679 12.1853C84.5679 12.6573 84.5425 13.1293 84.4662 13.6015H74.176C74.3538 15.7518 75.7765 16.9582 77.555 16.9582C79.0796 16.9582 79.9181 16.1713 80.3754 15.2012H84.212C83.45 17.8761 81.1123 20 77.6314 20" fill="#FEFEFE"/>
<path fill-rule="evenodd" clip-rule="evenodd" d="M92.8809 20C89.2548 20 86.7243 17.8759 86.5679 15.1747H90.246C90.3764 16.2761 91.3939 17.1152 92.8548 17.1152C94.2896 17.1152 95.0722 16.4599 95.0722 15.6206C95.0722 13.0245 86.9069 14.6765 86.9069 9.35309C86.9069 6.94054 89.0461 5 92.62 5C96.1157 5 98.2287 6.91439 98.4373 9.79897H94.9418C94.8372 8.67139 93.9505 7.9109 92.5156 7.9109C91.1591 7.9109 90.4548 8.46152 90.4548 9.30081C90.4548 11.9494 98.4635 10.2971 98.5679 15.6206C98.5679 18.1119 96.4027 20 92.8809 20" fill="#FEFEFE"/>
<path fill-rule="evenodd" clip-rule="evenodd" d="M105.881 20C102.255 20 99.7241 17.8759 99.5679 15.1747H103.246C103.376 16.2761 104.394 17.1152 105.855 17.1152C107.29 17.1152 108.072 16.4599 108.072 15.6206C108.072 13.0245 99.9069 14.6765 99.9069 9.35309C99.9069 6.94054 102.046 5 105.62 5C109.115 5 111.229 6.91439 111.437 9.79897H107.942C107.837 8.67139 106.95 7.9109 105.515 7.9109C104.159 7.9109 103.455 8.46152 103.455 9.30081C103.455 11.9494 111.463 10.2971 111.568 15.6206C111.568 18.1119 109.403 20 105.881 20" fill="#FEFEFE"/>
<path fill-rule="evenodd" clip-rule="evenodd" d="M6.68652 62C3.82096 62 1.60761 60.6182 1.56787 58.2182H4.53231C4.61123 59.2364 5.34273 59.909 6.6272 59.909C7.93144 59.909 8.70231 59.2728 8.70231 58.3634C8.70231 55.6182 1.58765 57.2727 1.60761 52.6729C1.60761 50.3818 3.6232 49 6.46899 49C9.29501 49 11.2321 50.3274 11.4099 52.6182H8.36631C8.30699 51.782 7.57586 51.1274 6.39008 51.109C5.30318 51.0726 4.49276 51.5637 4.49276 52.6C4.49276 55.1455 11.5679 53.7275 11.5679 58.1999C11.5679 60.2001 9.82876 62 6.68652 62" fill="#FEFEFE"/>
<path fill-rule="evenodd" clip-rule="evenodd" d="M15.4227 55.4998H20.673C20.6333 54.0958 19.4752 53.2113 18.0381 53.2113C16.7005 53.2113 15.6423 54.0382 15.4227 55.4998M18.1178 62C14.9037 62 12.5679 59.8459 12.5679 56.4999C12.5679 53.1344 14.8438 51 18.1178 51C21.3119 51 23.5679 53.0961 23.5679 56.2688C23.5679 56.6152 23.5477 56.9614 23.488 57.3076H15.403C15.5426 58.8846 16.6605 59.7691 18.0579 59.7691C19.2557 59.7691 19.9145 59.1921 20.2739 58.4807H23.2884C22.6895 60.4422 20.8528 62 18.1178 62" fill="#FEFEFE"/>
<path fill-rule="evenodd" clip-rule="evenodd" d="M40.9667 56.0106C40.9667 54.2883 40.0563 53.3879 38.6814 53.3879C37.288 53.3879 36.3777 54.2883 36.3777 56.0106V62H33.7766V56.0106C33.7766 54.2883 32.8662 53.3879 31.4913 53.3879C30.0793 53.3879 29.1688 54.2883 29.1688 56.0106V62H26.5679V51.1565H29.1688V52.468C29.8192 51.5678 30.9153 51 32.1972 51C33.7952 51 35.1141 51.7241 35.8202 53.0749C36.4891 51.8418 37.8454 51 39.3504 51C41.8214 51 43.5679 52.644 43.5679 55.6389V62H40.9667V56.0106Z" fill="#FEFEFE"/>
<path fill-rule="evenodd" clip-rule="evenodd" d="M44.8295 62H47.2713V51.4006H44.8295V62ZM44.5679 48.569C44.5679 47.689 45.1957 47 46.068 47C46.9225 47 47.5679 47.689 47.5679 48.569C47.5679 49.4491 46.9225 50.1379 46.068 50.1379C45.1957 50.1379 44.5679 49.4491 44.5679 48.569V48.569Z" fill="#FEFEFE"/>
<path fill-rule="evenodd" clip-rule="evenodd" d="M56.9163 56.0106C56.9163 54.2687 55.9882 53.3293 54.5867 53.3293C53.1473 53.3293 52.2191 54.2687 52.2191 56.0106V62H49.5679V51.1565H52.2191V52.5073C52.9011 51.5874 54.0373 51 55.3822 51C57.8254 51 59.5679 52.644 59.5679 55.6389V62H56.9163V56.0106Z" fill="#FEFEFE"/>
<path fill-rule="evenodd" clip-rule="evenodd" d="M66.0775 53.3651C64.6475 53.3651 63.294 54.4422 63.294 56.4614C63.294 58.4807 64.6475 59.6344 66.0775 59.6344C67.5453 59.6344 68.8799 58.519 68.8799 56.4999C68.8799 54.4805 67.5453 53.3651 66.0775 53.3651M65.3909 51C67.0878 51 68.2506 51.8075 68.8799 52.6921V51.1728H71.5679V61.8268H68.8799V60.2692C68.2506 61.192 67.0497 62 65.372 62C62.703 62 60.5679 59.7883 60.5679 56.4614C60.5679 53.1344 62.703 51 65.3909 51" fill="#FEFEFE"/>
<path fill-rule="evenodd" clip-rule="evenodd" d="M75.2775 62H72.5679V51.1567H75.2775V52.8401C75.9549 51.7241 77.0773 51 78.5679 51V53.8775H77.8518C76.2453 53.8775 75.2775 54.5039 75.2775 56.598V62Z" fill="#FEFEFE"/>
<path fill-rule="evenodd" clip-rule="evenodd" d="M16.4695 32.8792H10.7209C10.3034 32.2418 9.5173 31.8403 8.38713 31.8403C6.27438 31.8403 5.09513 33.2806 5.09513 35.5001C5.09513 38.0972 6.32363 39.3959 9.00147 39.3959C10.2296 39.3959 11.2369 38.9708 12.0477 37.932H7.69918V34.225H16.5679V39.4668C15.3641 41.4738 12.9073 44 8.41167 44C2.93348 44 -0.432129 40.4821 -0.432129 35.5001C-0.432129 30.5181 2.90877 27 8.36241 27C12.9811 27 15.9535 29.3139 16.4695 32.8792" fill="#FEFEFE"/>
<path fill-rule="evenodd" clip-rule="evenodd" d="M25.8012 30.466H23.7481V33.3475H25.8012C26.7812 33.3475 27.2945 32.9153 27.2945 31.9067C27.2945 31.0423 26.7812 30.466 25.8012 30.466V30.466ZM26.268 26C30.4212 26 32.5446 28.4491 32.5446 31.5706C32.5446 33.8035 31.3313 35.7005 28.9745 36.493L32.5679 43H26.8746L23.7712 36.901H23.7481V43H18.5679V26H26.268Z" fill="#FEFEFE"/>
<path fill-rule="evenodd" clip-rule="evenodd" d="M44.0912 39.1595C46.1695 39.1595 47.3139 37.6862 47.3139 35.4883C47.3139 33.2434 46.1695 31.7936 44.0912 31.7936C41.9663 31.7936 40.8453 33.2434 40.8453 35.4883C40.8453 37.6862 41.9663 39.1595 44.0912 39.1595M44.0912 44C39.3975 44 35.5679 40.469 35.5679 35.4883C35.5679 30.5075 39.3975 27 44.0912 27C48.8084 27 52.5679 30.5075 52.5679 35.4883C52.5679 40.469 48.7617 44 44.0912 44" fill="#FEFEFE"/>
<path fill-rule="evenodd" clip-rule="evenodd" d="M79.5679 26H93.5679V30.2259H89.1518V43H83.9369V30.2259H79.5679V26Z" fill="#FEFEFE"/>
<path fill-rule="evenodd" clip-rule="evenodd" d="M104.145 36.3729H98.9908V43H93.5679V26H98.9908V32.1228H104.145V26H109.568V43H104.145V36.3729Z" fill="#FEFEFE"/>
<path fill-rule="evenodd" clip-rule="evenodd" d="M52.5679 38.1291L54.2348 36.8789L58.2462 46.6457L65.0186 36.2539L70.775 48L77.5679 24L70.4886 41.1503L65.1705 30.6804L58.4026 42.765L54.4627 35.9089L52.5679 38.1291Z" fill="#FEFEFE"/>
</g>
</svg>
