<svg width="44" height="33" viewBox="0 0 44 33" fill="none" xmlns="http://www.w3.org/2000/svg">
<mask id="mask0" mask-type="alpha" maskUnits="userSpaceOnUse" x="0" y="0" width="44" height="33">
<path fill-rule="evenodd" clip-rule="evenodd" d="M0.356934 0H43.3569V33H0.356934V0Z" fill="white"/>
</mask>
<g mask="url(#mask0)">
<path fill-rule="evenodd" clip-rule="evenodd" d="M36.2838 2.50588C36.2838 2.50588 34.0184 -0.11992 30.0571 0.00427041C25.3677 0.151338 21.0111 2.89842 21.5141 9.93735C21.5141 9.93735 14.4509 11.9977 3.45777 1.99096C3.45777 1.99096 -0.0789962 7.50945 6.17389 12.7091C6.17389 12.7091 4.41841 13.175 2.07372 11.9244C2.07372 11.9244 0.817904 16.5845 8.86421 20.1163C8.86421 20.1163 6.14809 20.852 4.91807 20.1163C4.91807 20.1163 5.6359 25.0708 12.8623 26.2477C12.8623 26.2477 9.14648 29.7795 0.356934 29.6815C0.356934 29.6815 18.6345 38.6341 31.3083 27.1301C40.3582 18.9143 39.1027 7.95102 39.1027 7.95102C39.1027 7.95102 41.7676 7.16593 43.3569 4.39452C43.3569 4.39452 40.3327 5.30198 38.5902 5.15492C38.5902 5.15492 41.9213 3.16569 42.1778 0.812236C42.1778 0.812236 39.3334 2.75099 36.2838 2.50588Z" fill="#FF0000"/>
</g>
</svg>
